<svg xmlns="http://www.w3.org/2000/svg" width="128px" height="128px" viewBox="-150 -150 300 300" stroke="crimson"
    stroke-width="4" fill="pink">
    <title>ume</title>
    <desc>©️ 2023 yagamisiro.</desc>
    <path d="
    M0,0A50,50 0 1 1-77,25
    M0,0A50,50 0 1 1-47.61-65.53
    M0,0A50,50 0 1 1 47.61-65.53
    M0,0A50,50 0 1 1 77,25
    M0,0A50,50 0 1 1 0,81
    M0,0A50,50 0 0 1 18-18
    M0,0A50,50 0 0 1 22 11.56
    M0,0A50,50 0 0 1 -3.98 25.14
    M0,0A50,50 0 0 1 -25.14 3.98
    M0,0A50,50 0 0 1 -11.56 -22.68
    " />
    <circle r="10" />
</svg>